0, 0, Header, 1, 8, 1024
1, 0, Start_track
1, 0, Time_signature, 4, 2, 24, 8
1, 0, Key_signature, -1, "major"
1, 0, Tempo, 789473
1, 86016, End_track
2, 0, Start_track
2, 0, Unknown_meta_event, 9, 22, 83, 109, 97, 114, 116, 77, 117, 115, 105, 99, 32, 83, 111, 102, 116, 83, 121, 110, 116, 104, 32, 49
2, 0, Title_t, "Instrument 1"
2, 0, Control_c, 0, 7, 101
2, 0, Control_c, 0, 10, 64
2, 3072, Note_on_c, 0, 65, 100
2, 4096, Note_off_c, 0, 65, 0
2, 4096, Note_on_c, 0, 72, 100
2, 5120, Note_off_c, 0, 72, 0
2, 5120, Note_on_c, 0, 69, 100
2, 6144, Note_off_c, 0, 69, 0
2, 6144, Note_on_c, 0, 65, 100
2, 7168, Note_off_c, 0, 65, 0
2, 7168, Note_on_c, 0, 72, 100
2, 8192, Note_off_c, 0, 72, 0
2, 8192, Note_on_c, 0, 74, 100
2, 9216, Note_off_c, 0, 74, 0
2, 9216, Note_on_c, 0, 74, 100
2, 10240, Note_off_c, 0, 74, 0
2, 10240, Note_on_c, 0, 72, 100
2, 11264, Note_off_c, 0, 72, 0
2, 11264, Note_on_c, 0, 72, 100
2, 12288, Note_off_c, 0, 72, 0
2, 12288, Note_on_c, 0, 74, 100
2, 13312, Note_off_c, 0, 74, 0
2, 13312, Note_on_c, 0, 76, 100
2, 14336, Note_off_c, 0, 76, 0
2, 14336, Note_on_c, 0, 77, 100
2, 15360, Note_off_c, 0, 77, 0
2, 15360, Note_on_c, 0, 76, 100
2, 16384, Note_off_c, 0, 76, 0
2, 16384, Note_on_c, 0, 74, 100
2, 17408, Note_off_c, 0, 74, 0
2, 17408, Note_on_c, 0, 74, 100
2, 18432, Note_off_c, 0, 74, 0
2, 18432, Note_on_c, 0, 72, 100
2, 19456, Note_off_c, 0, 72, 0
2, 19456, Note_on_c, 0, 69, 100
2, 20480, Note_off_c, 0, 69, 0
2, 20480, Note_on_c, 0, 74, 100
2, 21504, Note_off_c, 0, 74, 0
2, 21504, Note_on_c, 0, 72, 100
2, 22528, Note_off_c, 0, 72, 0
2, 22528, Note_on_c, 0, 70, 100
2, 23552, Note_off_c, 0, 70, 0
2, 23552, Note_on_c, 0, 69, 100
2, 24576, Note_off_c, 0, 69, 0
2, 24576, Note_on_c, 0, 67, 100
2, 26624, Note_off_c, 0, 67, 0
2, 26624, Note_on_c, 0, 65, 100
2, 27648, Note_off_c, 0, 65, 0
2, 27648, Note_on_c, 0, 65, 100
2, 28672, Note_off_c, 0, 65, 0
2, 28672, Note_on_c, 0, 72, 100
2, 29696, Note_off_c, 0, 72, 0
2, 29696, Note_on_c, 0, 69, 100
2, 30720, Note_off_c, 0, 69, 0
2, 30720, Note_on_c, 0, 65, 100
2, 31744, Note_off_c, 0, 65, 0
2, 31744, Note_on_c, 0, 72, 100
2, 32768, Note_off_c, 0, 72, 0
2, 32768, Note_on_c, 0, 74, 100
2, 33792, Note_off_c, 0, 74, 0
2, 33792, Note_on_c, 0, 74, 100
2, 34816, Note_off_c, 0, 74, 0
2, 34816, Note_on_c, 0, 72, 100
2, 35840, Note_off_c, 0, 72, 0
2, 35840, Note_on_c, 0, 72, 100
2, 36864, Note_off_c, 0, 72, 0
2, 36864, Note_on_c, 0, 74, 100
2, 37888, Note_off_c, 0, 74, 0
2, 37888, Note_on_c, 0, 76, 100
2, 38912, Note_off_c, 0, 76, 0
2, 38912, Note_on_c, 0, 77, 100
2, 39936, Note_off_c, 0, 77, 0
2, 39936, Note_on_c, 0, 76, 100
2, 40960, Note_off_c, 0, 76, 0
2, 40960, Note_on_c, 0, 74, 100
2, 41984, Note_off_c, 0, 74, 0
2, 41984, Note_on_c, 0, 74, 100
2, 43008, Note_off_c, 0, 74, 0
2, 43008, Note_on_c, 0, 72, 100
2, 44032, Note_off_c, 0, 72, 0
2, 44032, Note_on_c, 0, 69, 100
2, 45056, Note_off_c, 0, 69, 0
2, 45056, Note_on_c, 0, 74, 100
2, 46080, Note_off_c, 0, 74, 0
2, 46080, Note_on_c, 0, 72, 100
2, 47104, Note_off_c, 0, 72, 0
2, 47104, Note_on_c, 0, 70, 100
2, 48128, Note_off_c, 0, 70, 0
2, 48128, Note_on_c, 0, 69, 100
2, 49152, Note_off_c, 0, 69, 0
2, 49152, Note_on_c, 0, 67, 100
2, 51200, Note_off_c, 0, 67, 0
2, 51200, Note_on_c, 0, 65, 100
2, 52224, Note_off_c, 0, 65, 0
2, 53248, Note_on_c, 0, 72, 100
2, 55296, Note_off_c, 0, 72, 0
2, 55296, Note_on_c, 0, 69, 100
2, 57344, Note_off_c, 0, 69, 0
2, 57344, Note_on_c, 0, 72, 100
2, 59392, Note_off_c, 0, 72, 0
2, 59392, Note_on_c, 0, 69, 100
2, 61440, Note_off_c, 0, 69, 0
2, 61440, Note_on_c, 0, 69, 100
2, 62464, Note_off_c, 0, 69, 0
2, 62464, Note_on_c, 0, 69, 100
2, 63488, Note_off_c, 0, 69, 0
2, 63488, Note_on_c, 0, 67, 100
2, 64512, Note_off_c, 0, 67, 0
2, 64512, Note_on_c, 0, 67, 100
2, 65536, Note_off_c, 0, 67, 0
2, 65536, Note_on_c, 0, 69, 100
2, 66560, Note_off_c, 0, 69, 0
2, 66560, Note_on_c, 0, 69, 100
2, 67584, Note_off_c, 0, 69, 0
2, 67584, Note_on_c, 0, 67, 100
2, 68608, Note_off_c, 0, 67, 0
2, 68608, Note_on_c, 0, 69, 100
2, 69632, Note_off_c, 0, 69, 0
2, 69632, Note_on_c, 0, 70, 100
2, 70656, Note_off_c, 0, 70, 0
2, 70656, Note_on_c, 0, 69, 100
2, 71680, Note_off_c, 0, 69, 0
2, 71680, Note_on_c, 0, 67, 100
2, 73728, Note_off_c, 0, 67, 0
2, 73728, Note_on_c, 0, 65, 100
2, 75776, Note_off_c, 0, 65, 0
2, 75776, Note_on_c, 0, 77, 100
2, 76800, Note_off_c, 0, 77, 0
2, 76800, Note_on_c, 0, 76, 100
2, 77824, Note_off_c, 0, 76, 0
2, 77824, Note_on_c, 0, 74, 100
2, 78848, Note_off_c, 0, 74, 0
2, 78848, Note_on_c, 0, 72, 100
2, 79872, Note_off_c, 0, 72, 0
2, 79872, Note_on_c, 0, 70, 100
2, 80896, Note_off_c, 0, 70, 0
2, 80896, Note_on_c, 0, 69, 100
2, 81920, Note_off_c, 0, 69, 0
2, 81920, Note_on_c, 0, 67, 100
2, 83968, Note_off_c, 0, 67, 0
2, 83968, Note_on_c, 0, 65, 100
2, 84992, Note_off_c, 0, 65, 0
2, 86016, End_track
3, 0, Start_track
3, 0, Unknown_meta_event, 9, 22, 83, 109, 97, 114, 116, 77, 117, 115, 105, 99, 32, 83, 111, 102, 116, 83, 121, 110, 116, 104, 32, 49
3, 0, Title_t, "Instrument 2"
3, 0, Control_c, 1, 7, 101
3, 0, Control_c, 1, 10, 64
3, 3072, Note_on_c, 1, 60, 100
3, 4096, Note_off_c, 1, 60, 0
3, 4096, Note_on_c, 1, 60, 100
3, 5120, Note_off_c, 1, 60, 0
3, 5120, Note_on_c, 1, 60, 100
3, 6144, Note_off_c, 1, 60, 0
3, 6144, Note_on_c, 1, 62, 100
3, 7168, Note_off_c, 1, 62, 0
3, 7168, Note_on_c, 1, 65, 100
3, 8192, Note_off_c, 1, 65, 0
3, 8192, Note_on_c, 1, 70, 100
3, 9216, Note_off_c, 1, 70, 0
3, 9216, Note_on_c, 1, 70, 100
3, 10240, Note_off_c, 1, 70, 0
3, 10240, Note_on_c, 1, 69, 100
3, 11264, Note_off_c, 1, 69, 0
3, 11264, Note_on_c, 1, 69, 100
3, 12288, Note_off_c, 1, 69, 0
3, 12288, Note_on_c, 1, 70, 100
3, 13312, Note_off_c, 1, 70, 0
3, 13312, Note_on_c, 1, 70, 100
3, 14336, Note_off_c, 1, 70, 0
3, 14336, Note_on_c, 1, 72, 100
3, 14848, Note_off_c, 1, 72, 0
3, 14848, Note_on_c, 1, 74, 100
3, 15360, Note_off_c, 1, 74, 0
3, 15360, Note_on_c, 1, 72, 100
3, 15872, Note_off_c, 1, 72, 0
3, 15872, Note_on_c, 1, 67, 100
3, 16384, Note_off_c, 1, 67, 0
3, 16384, Note_on_c, 1, 69, 100
3, 17408, Note_off_c, 1, 69, 0
3, 17408, Note_on_c, 1, 67, 100
3, 18432, Note_off_c, 1, 67, 0
3, 18432, Note_on_c, 1, 67, 100
3, 19456, Note_off_c, 1, 67, 0
3, 19456, Note_on_c, 1, 65, 100
3, 20480, Note_off_c, 1, 65, 0
3, 20480, Note_on_c, 1, 65, 100
3, 21504, Note_off_c, 1, 65, 0
3, 21504, Note_on_c, 1, 64, 100
3, 22528, Note_off_c, 1, 64, 0
3, 22528, Note_on_c, 1, 65, 100
3, 23040, Note_off_c, 1, 65, 0
3, 23040, Note_on_c, 1, 67, 100
3, 23552, Note_off_c, 1, 67, 0
3, 23552, Note_on_c, 1, 60, 100
3, 24064, Note_off_c, 1, 60, 0
3, 24064, Note_on_c, 1, 65, 100
3, 24576, Note_off_c, 1, 65, 0
3, 24576, Note_on_c, 1, 65, 100
3, 25600, Note_off_c, 1, 65, 0
3, 25600, Note_on_c, 1, 64, 100
3, 26624, Note_off_c, 1, 64, 0
3, 26624, Note_on_c, 1, 60, 100
3, 27648, Note_off_c, 1, 60, 0
3, 27648, Note_on_c, 1, 60, 100
3, 28672, Note_off_c, 1, 60, 0
3, 28672, Note_on_c, 1, 60, 100
3, 29696, Note_off_c, 1, 60, 0
3, 29696, Note_on_c, 1, 60, 100
3, 30720, Note_off_c, 1, 60, 0
3, 30720, Note_on_c, 1, 62, 100
3, 31744, Note_off_c, 1, 62, 0
3, 31744, Note_on_c, 1, 65, 100
3, 32768, Note_off_c, 1, 65, 0
3, 32768, Note_on_c, 1, 70, 100
3, 33792, Note_off_c, 1, 70, 0
3, 33792, Note_on_c, 1, 70, 100
3, 34816, Note_off_c, 1, 70, 0
3, 34816, Note_on_c, 1, 69, 100
3, 35840, Note_off_c, 1, 69, 0
3, 35840, Note_on_c, 1, 69, 100
3, 36864, Note_off_c, 1, 69, 0
3, 36864, Note_on_c, 1, 70, 100
3, 37888, Note_off_c, 1, 70, 0
3, 37888, Note_on_c, 1, 70, 100
3, 38912, Note_off_c, 1, 70, 0
3, 38912, Note_on_c, 1, 72, 100
3, 39424, Note_off_c, 1, 72, 0
3, 39424, Note_on_c, 1, 74, 100
3, 39936, Note_off_c, 1, 74, 0
3, 39936, Note_on_c, 1, 72, 100
3, 40448, Note_off_c, 1, 72, 0
3, 40448, Note_on_c, 1, 67, 100
3, 40960, Note_off_c, 1, 67, 0
3, 40960, Note_on_c, 1, 69, 100
3, 41984, Note_off_c, 1, 69, 0
3, 41984, Note_on_c, 1, 67, 100
3, 43008, Note_off_c, 1, 67, 0
3, 43008, Note_on_c, 1, 67, 100
3, 44032, Note_off_c, 1, 67, 0
3, 44032, Note_on_c, 1, 65, 100
3, 45056, Note_off_c, 1, 65, 0
3, 45056, Note_on_c, 1, 65, 100
3, 46080, Note_off_c, 1, 65, 0
3, 46080, Note_on_c, 1, 64, 100
3, 47104, Note_off_c, 1, 64, 0
3, 47104, Note_on_c, 1, 65, 100
3, 47616, Note_off_c, 1, 65, 0
3, 47616, Note_on_c, 1, 67, 100
3, 48128, Note_off_c, 1, 67, 0
3, 48128, Note_on_c, 1, 60, 100
3, 48640, Note_off_c, 1, 60, 0
3, 48640, Note_on_c, 1, 65, 100
3, 49152, Note_off_c, 1, 65, 0
3, 49152, Note_on_c, 1, 65, 100
3, 50176, Note_off_c, 1, 65, 0
3, 50176, Note_on_c, 1, 64, 100
3, 51200, Note_off_c, 1, 64, 0
3, 51200, Note_on_c, 1, 60, 100
3, 52224, Note_off_c, 1, 60, 0
3, 53248, Note_on_c, 1, 67, 100
3, 55296, Note_off_c, 1, 67, 0
3, 55296, Note_on_c, 1, 65, 100
3, 57344, Note_off_c, 1, 65, 0
3, 57344, Note_on_c, 1, 65, 100
3, 57856, Note_off_c, 1, 65, 0
3, 57856, Note_on_c, 1, 64, 100
3, 58112, Note_off_c, 1, 64, 0
3, 58112, Note_on_c, 1, 62, 100
3, 58368, Note_off_c, 1, 62, 0
3, 58368, Note_on_c, 1, 64, 100
3, 59392, Note_off_c, 1, 64, 0
3, 59392, Note_on_c, 1, 65, 100
3, 61440, Note_off_c, 1, 65, 0
3, 61440, Note_on_c, 1, 65, 100
3, 62464, Note_off_c, 1, 65, 0
3, 62464, Note_on_c, 1, 65, 100
3, 63488, Note_off_c, 1, 65, 0
3, 63488, Note_on_c, 1, 64, 100
3, 64512, Note_off_c, 1, 64, 0
3, 64512, Note_on_c, 1, 64, 100
3, 65536, Note_off_c, 1, 64, 0
3, 65536, Note_on_c, 1, 65, 100
3, 66560, Note_off_c, 1, 65, 0
3, 66560, Note_on_c, 1, 65, 100
3, 67584, Note_off_c, 1, 65, 0
3, 67584, Note_on_c, 1, 64, 100
3, 68608, Note_off_c, 1, 64, 0
3, 68608, Note_on_c, 1, 65, 100
3, 69632, Note_off_c, 1, 65, 0
3, 69632, Note_on_c, 1, 67, 100
3, 70656, Note_off_c, 1, 67, 0
3, 70656, Note_on_c, 1, 65, 100
3, 71168, Note_off_c, 1, 65, 0
3, 71168, Note_on_c, 1, 64, 100
3, 71680, Note_off_c, 1, 64, 0
3, 71680, Note_on_c, 1, 62, 100
3, 72704, Note_off_c, 1, 62, 0
3, 72704, Note_on_c, 1, 64, 100
3, 73728, Note_off_c, 1, 64, 0
3, 73728, Note_on_c, 1, 65, 100
3, 75776, Note_off_c, 1, 65, 0
3, 75776, Note_on_c, 1, 69, 100
3, 76800, Note_off_c, 1, 69, 0
3, 76800, Note_on_c, 1, 69, 100
3, 77312, Note_off_c, 1, 69, 0
3, 77312, Note_on_c, 1, 67, 100
3, 77824, Note_off_c, 1, 67, 0
3, 77824, Note_on_c, 1, 65, 100
3, 78848, Note_off_c, 1, 65, 0
3, 78848, Note_on_c, 1, 65, 100
3, 79872, Note_off_c, 1, 65, 0
3, 79872, Note_on_c, 1, 65, 100
3, 80384, Note_off_c, 1, 65, 0
3, 80384, Note_on_c, 1, 64, 100
3, 80896, Note_off_c, 1, 64, 0
3, 80896, Note_on_c, 1, 60, 100
3, 81408, Note_off_c, 1, 60, 0
3, 81408, Note_on_c, 1, 65, 100
3, 81920, Note_off_c, 1, 65, 0
3, 81920, Note_on_c, 1, 65, 100
3, 82944, Note_off_c, 1, 65, 0
3, 82944, Note_on_c, 1, 64, 100
3, 83968, Note_off_c, 1, 64, 0
3, 83968, Note_on_c, 1, 60, 100
3, 84992, Note_off_c, 1, 60, 0
3, 86016, End_track
4, 0, Start_track
4, 0, Unknown_meta_event, 9, 22, 83, 109, 97, 114, 116, 77, 117, 115, 105, 99, 32, 83, 111, 102, 116, 83, 121, 110, 116, 104, 32, 49
4, 0, Title_t, "Instrument 3"
4, 0, Control_c, 2, 7, 101
4, 0, Control_c, 2, 10, 64
4, 3072, Note_on_c, 2, 57, 100
4, 4096, Note_off_c, 2, 57, 0
4, 4096, Note_on_c, 2, 55, 100
4, 5120, Note_off_c, 2, 55, 0
4, 5120, Note_on_c, 2, 57, 100
4, 6144, Note_off_c, 2, 57, 0
4, 6144, Note_on_c, 2, 57, 100
4, 7168, Note_off_c, 2, 57, 0
4, 7168, Note_on_c, 2, 57, 100
4, 8192, Note_off_c, 2, 57, 0
4, 8192, Note_on_c, 2, 53, 100
4, 9216, Note_off_c, 2, 53, 0
4, 9216, Note_on_c, 2, 65, 100
4, 10240, Note_off_c, 2, 65, 0
4, 10240, Note_on_c, 2, 65, 100
4, 11264, Note_off_c, 2, 65, 0
4, 11264, Note_on_c, 2, 65, 100
4, 12288, Note_off_c, 2, 65, 0
4, 12288, Note_on_c, 2, 65, 100
4, 13312, Note_off_c, 2, 65, 0
4, 13312, Note_on_c, 2, 67, 100
4, 14336, Note_off_c, 2, 67, 0
4, 14336, Note_on_c, 2, 65, 100
4, 14848, Note_off_c, 2, 65, 0
4, 14848, Note_on_c, 2, 62, 100
4, 15360, Note_off_c, 2, 62, 0
4, 15360, Note_on_c, 2, 64, 100
4, 16384, Note_off_c, 2, 64, 0
4, 16384, Note_on_c, 2, 65, 100
4, 16896, Note_off_c, 2, 65, 0
4, 16896, Note_on_c, 2, 64, 100
4, 17408, Note_off_c, 2, 64, 0
4, 17408, Note_on_c, 2, 62, 100
4, 18432, Note_off_c, 2, 62, 0
4, 18432, Note_on_c, 2, 64, 100
4, 19456, Note_off_c, 2, 64, 0
4, 19456, Note_on_c, 2, 60, 100
4, 19968, Note_off_c, 2, 60, 0
4, 19968, Note_on_c, 2, 57, 100
4, 20480, Note_off_c, 2, 57, 0
4, 20480, Note_on_c, 2, 53, 100
4, 20992, Note_off_c, 2, 53, 0
4, 20992, Note_on_c, 2, 55, 100
4, 21504, Note_off_c, 2, 55, 0
4, 21504, Note_on_c, 2, 57, 100
4, 22528, Note_off_c, 2, 57, 0
4, 22528, Note_on_c, 2, 57, 100
4, 23040, Note_off_c, 2, 57, 0
4, 23040, Note_on_c, 2, 55, 100
4, 23552, Note_off_c, 2, 55, 0
4, 23552, Note_on_c, 2, 57, 100
4, 24064, Note_off_c, 2, 57, 0
4, 24064, Note_on_c, 2, 53, 100
4, 24576, Note_off_c, 2, 53, 0
4, 24576, Note_on_c, 2, 55, 100
4, 25088, Note_off_c, 2, 55, 0
4, 25088, Note_on_c, 2, 57, 100
4, 25600, Note_off_c, 2, 57, 0
4, 25600, Note_on_c, 2, 58, 100
4, 26624, Note_off_c, 2, 58, 0
4, 26624, Note_on_c, 2, 57, 100
4, 27648, Note_off_c, 2, 57, 0
4, 27648, Note_on_c, 2, 57, 100
4, 28672, Note_off_c, 2, 57, 0
4, 28672, Note_on_c, 2, 55, 100
4, 29696, Note_off_c, 2, 55, 0
4, 29696, Note_on_c, 2, 57, 100
4, 30720, Note_off_c, 2, 57, 0
4, 30720, Note_on_c, 2, 57, 100
4, 31744, Note_off_c, 2, 57, 0
4, 31744, Note_on_c, 2, 57, 100
4, 32768, Note_off_c, 2, 57, 0
4, 32768, Note_on_c, 2, 53, 100
4, 33792, Note_off_c, 2, 53, 0
4, 33792, Note_on_c, 2, 65, 100
4, 34816, Note_off_c, 2, 65, 0
4, 34816, Note_on_c, 2, 65, 100
4, 35840, Note_off_c, 2, 65, 0
4, 35840, Note_on_c, 2, 65, 100
4, 36864, Note_off_c, 2, 65, 0
4, 36864, Note_on_c, 2, 65, 100
4, 37888, Note_off_c, 2, 65, 0
4, 37888, Note_on_c, 2, 67, 100
4, 38912, Note_off_c, 2, 67, 0
4, 38912, Note_on_c, 2, 65, 100
4, 39424, Note_off_c, 2, 65, 0
4, 39424, Note_on_c, 2, 62, 100
4, 39936, Note_off_c, 2, 62, 0
4, 39936, Note_on_c, 2, 64, 100
4, 40960, Note_off_c, 2, 64, 0
4, 40960, Note_on_c, 2, 65, 100
4, 41472, Note_off_c, 2, 65, 0
4, 41472, Note_on_c, 2, 64, 100
4, 41984, Note_off_c, 2, 64, 0
4, 41984, Note_on_c, 2, 62, 100
4, 43008, Note_off_c, 2, 62, 0
4, 43008, Note_on_c, 2, 64, 100
4, 44032, Note_off_c, 2, 64, 0
4, 44032, Note_on_c, 2, 60, 100
4, 44544, Note_off_c, 2, 60, 0
4, 44544, Note_on_c, 2, 57, 100
4, 45056, Note_off_c, 2, 57, 0
4, 45056, Note_on_c, 2, 53, 100
4, 45568, Note_off_c, 2, 53, 0
4, 45568, Note_on_c, 2, 55, 100
4, 46080, Note_off_c, 2, 55, 0
4, 46080, Note_on_c, 2, 57, 100
4, 47104, Note_off_c, 2, 57, 0
4, 47104, Note_on_c, 2, 57, 100
4, 47616, Note_off_c, 2, 57, 0
4, 47616, Note_on_c, 2, 55, 100
4, 48128, Note_off_c, 2, 55, 0
4, 48128, Note_on_c, 2, 57, 100
4, 48640, Note_off_c, 2, 57, 0
4, 48640, Note_on_c, 2, 53, 100
4, 49152, Note_off_c, 2, 53, 0
4, 49152, Note_on_c, 2, 55, 100
4, 49664, Note_off_c, 2, 55, 0
4, 49664, Note_on_c, 2, 57, 100
4, 50176, Note_off_c, 2, 57, 0
4, 50176, Note_on_c, 2, 58, 100
4, 51200, Note_off_c, 2, 58, 0
4, 51200, Note_on_c, 2, 57, 100
4, 52224, Note_off_c, 2, 57, 0
4, 53248, Note_on_c, 2, 60, 100
4, 55296, Note_off_c, 2, 60, 0
4, 55296, Note_on_c, 2, 60, 100
4, 57344, Note_off_c, 2, 60, 0
4, 57344, Note_on_c, 2, 60, 100
4, 59392, Note_off_c, 2, 60, 0
4, 59392, Note_on_c, 2, 60, 100
4, 61440, Note_off_c, 2, 60, 0
4, 61440, Note_on_c, 2, 60, 100
4, 62464, Note_off_c, 2, 60, 0
4, 62464, Note_on_c, 2, 60, 100
4, 63488, Note_off_c, 2, 60, 0
4, 63488, Note_on_c, 2, 60, 100
4, 64512, Note_off_c, 2, 60, 0
4, 64512, Note_on_c, 2, 60, 100
4, 65536, Note_off_c, 2, 60, 0
4, 65536, Note_on_c, 2, 60, 100
4, 66560, Note_off_c, 2, 60, 0
4, 66560, Note_on_c, 2, 60, 100
4, 67584, Note_off_c, 2, 60, 0
4, 67584, Note_on_c, 2, 60, 100
4, 68608, Note_off_c, 2, 60, 0
4, 68608, Note_on_c, 2, 60, 100
4, 69632, Note_off_c, 2, 60, 0
4, 69632, Note_on_c, 2, 62, 100
4, 70656, Note_off_c, 2, 62, 0
4, 70656, Note_on_c, 2, 62, 100
4, 71680, Note_off_c, 2, 62, 0
4, 71680, Note_on_c, 2, 62, 100
4, 72704, Note_off_c, 2, 62, 0
4, 72704, Note_on_c, 2, 60, 100
4, 73728, Note_off_c, 2, 60, 0
4, 73728, Note_on_c, 2, 60, 100
4, 75776, Note_off_c, 2, 60, 0
4, 75776, Note_on_c, 2, 62, 100
4, 76800, Note_off_c, 2, 62, 0
4, 76800, Note_on_c, 2, 60, 100
4, 77824, Note_off_c, 2, 60, 0
4, 77824, Note_on_c, 2, 62, 100
4, 78336, Note_off_c, 2, 62, 0
4, 78336, Note_on_c, 2, 58, 100
4, 78848, Note_off_c, 2, 58, 0
4, 78848, Note_on_c, 2, 53, 100
4, 79360, Note_off_c, 2, 53, 0
4, 79360, Note_on_c, 2, 57, 100
4, 79872, Note_off_c, 2, 57, 0
4, 79872, Note_on_c, 2, 58, 100
4, 80896, Note_off_c, 2, 58, 0
4, 80896, Note_on_c, 2, 60, 100
4, 81408, Note_off_c, 2, 60, 0
4, 81408, Note_on_c, 2, 57, 100
4, 81920, Note_off_c, 2, 57, 0
4, 81920, Note_on_c, 2, 62, 100
4, 82944, Note_off_c, 2, 62, 0
4, 82944, Note_on_c, 2, 55, 100
4, 83200, Note_off_c, 2, 55, 0
4, 83200, Note_on_c, 2, 53, 100
4, 83456, Note_off_c, 2, 53, 0
4, 83456, Note_on_c, 2, 55, 100
4, 83968, Note_off_c, 2, 55, 0
4, 83968, Note_on_c, 2, 57, 100
4, 84992, Note_off_c, 2, 57, 0
4, 86016, End_track
5, 0, Start_track
5, 0, Unknown_meta_event, 9, 22, 83, 109, 97, 114, 116, 77, 117, 115, 105, 99, 32, 83, 111, 102, 116, 83, 121, 110, 116, 104, 32, 49
5, 0, Title_t, "Instrument 4"
5, 0, Control_c, 3, 7, 101
5, 0, Control_c, 3, 10, 64
5, 3072, Note_on_c, 3, 53, 100
5, 4096, Note_off_c, 3, 53, 0
5, 4096, Note_on_c, 3, 52, 100
5, 5120, Note_off_c, 3, 52, 0
5, 5120, Note_on_c, 3, 53, 100
5, 6144, Note_off_c, 3, 53, 0
5, 6144, Note_on_c, 3, 50, 100
5, 7168, Note_off_c, 3, 50, 0
5, 7168, Note_on_c, 3, 45, 100
5, 8192, Note_off_c, 3, 45, 0
5, 8192, Note_on_c, 3, 46, 100
5, 8704, Note_off_c, 3, 46, 0
5, 8704, Note_on_c, 3, 48, 100
5, 9216, Note_off_c, 3, 48, 0
5, 9216, Note_on_c, 3, 50, 100
5, 9728, Note_off_c, 3, 50, 0
5, 9728, Note_on_c, 3, 52, 100
5, 10240, Note_off_c, 3, 52, 0
5, 10240, Note_on_c, 3, 53, 100
5, 11264, Note_off_c, 3, 53, 0
5, 11264, Note_on_c, 3, 53, 100
5, 12288, Note_off_c, 3, 53, 0
5, 12288, Note_on_c, 3, 58, 100
5, 13312, Note_off_c, 3, 58, 0
5, 13312, Note_on_c, 3, 57, 100
5, 13824, Note_off_c, 3, 57, 0
5, 13824, Note_on_c, 3, 55, 100
5, 14336, Note_off_c, 3, 55, 0
5, 14336, Note_on_c, 3, 57, 100
5, 14848, Note_off_c, 3, 57, 0
5, 14848, Note_on_c, 3, 59, 100
5, 15360, Note_off_c, 3, 59, 0
5, 15360, Note_on_c, 3, 60, 100
5, 16384, Note_off_c, 3, 60, 0
5, 16384, Note_on_c, 3, 53, 100
5, 17408, Note_off_c, 3, 53, 0
5, 17408, Note_on_c, 3, 55, 100
5, 18432, Note_off_c, 3, 55, 0
5, 18432, Note_on_c, 3, 48, 100
5, 19456, Note_off_c, 3, 48, 0
5, 19456, Note_on_c, 3, 53, 100
5, 20480, Note_off_c, 3, 53, 0
5, 20480, Note_on_c, 3, 46, 100
5, 21504, Note_off_c, 3, 46, 0
5, 21504, Note_on_c, 3, 48, 100
5, 22528, Note_off_c, 3, 48, 0
5, 22528, Note_on_c, 3, 50, 100
5, 23040, Note_off_c, 3, 50, 0
5, 23040, Note_on_c, 3, 52, 100
5, 23552, Note_off_c, 3, 52, 0
5, 23552, Note_on_c, 3, 53, 100
5, 24576, Note_off_c, 3, 53, 0
5, 24576, Note_on_c, 3, 48, 100
5, 26624, Note_off_c, 3, 48, 0
5, 26624, Note_on_c, 3, 41, 100
5, 27648, Note_off_c, 3, 41, 0
5, 27648, Note_on_c, 3, 53, 100
5, 28672, Note_off_c, 3, 53, 0
5, 28672, Note_on_c, 3, 52, 100
5, 29696, Note_off_c, 3, 52, 0
5, 29696, Note_on_c, 3, 53, 100
5, 30720, Note_off_c, 3, 53, 0
5, 30720, Note_on_c, 3, 50, 100
5, 31744, Note_off_c, 3, 50, 0
5, 31744, Note_on_c, 3, 45, 100
5, 32768, Note_off_c, 3, 45, 0
5, 32768, Note_on_c, 3, 46, 100
5, 33280, Note_off_c, 3, 46, 0
5, 33280, Note_on_c, 3, 48, 100
5, 33792, Note_off_c, 3, 48, 0
5, 33792, Note_on_c, 3, 50, 100
5, 34304, Note_off_c, 3, 50, 0
5, 34304, Note_on_c, 3, 52, 100
5, 34816, Note_off_c, 3, 52, 0
5, 34816, Note_on_c, 3, 53, 100
5, 35840, Note_off_c, 3, 53, 0
5, 35840, Note_on_c, 3, 53, 100
5, 36864, Note_off_c, 3, 53, 0
5, 36864, Note_on_c, 3, 58, 100
5, 37888, Note_off_c, 3, 58, 0
5, 37888, Note_on_c, 3, 57, 100
5, 38400, Note_off_c, 3, 57, 0
5, 38400, Note_on_c, 3, 55, 100
5, 38912, Note_off_c, 3, 55, 0
5, 38912, Note_on_c, 3, 57, 100
5, 39424, Note_off_c, 3, 57, 0
5, 39424, Note_on_c, 3, 59, 100
5, 39936, Note_off_c, 3, 59, 0
5, 39936, Note_on_c, 3, 60, 100
5, 40960, Note_off_c, 3, 60, 0
5, 40960, Note_on_c, 3, 53, 100
5, 41984, Note_off_c, 3, 53, 0
5, 41984, Note_on_c, 3, 55, 100
5, 43008, Note_off_c, 3, 55, 0
5, 43008, Note_on_c, 3, 48, 100
5, 44032, Note_off_c, 3, 48, 0
5, 44032, Note_on_c, 3, 53, 100
5, 45056, Note_off_c, 3, 53, 0
5, 45056, Note_on_c, 3, 46, 100
5, 46080, Note_off_c, 3, 46, 0
5, 46080, Note_on_c, 3, 48, 100
5, 47104, Note_off_c, 3, 48, 0
5, 47104, Note_on_c, 3, 50, 100
5, 47616, Note_off_c, 3, 50, 0
5, 47616, Note_on_c, 3, 52, 100
5, 48128, Note_off_c, 3, 52, 0
5, 48128, Note_on_c, 3, 53, 100
5, 49152, Note_off_c, 3, 53, 0
5, 49152, Note_on_c, 3, 48, 100
5, 51200, Note_off_c, 3, 48, 0
5, 51200, Note_on_c, 3, 41, 100
5, 52224, Note_off_c, 3, 41, 0
5, 53248, Note_on_c, 3, 52, 100
5, 55296, Note_off_c, 3, 52, 0
5, 55296, Note_on_c, 3, 53, 100
5, 57344, Note_off_c, 3, 53, 0
5, 57344, Note_on_c, 3, 48, 100
5, 59392, Note_off_c, 3, 48, 0
5, 59392, Note_on_c, 3, 53, 100
5, 61440, Note_off_c, 3, 53, 0
5, 61440, Note_on_c, 3, 53, 100
5, 61952, Note_off_c, 3, 53, 0
5, 61952, Note_on_c, 3, 55, 100
5, 62464, Note_off_c, 3, 55, 0
5, 62464, Note_on_c, 3, 57, 100
5, 62976, Note_off_c, 3, 57, 0
5, 62976, Note_on_c, 3, 53, 100
5, 63488, Note_off_c, 3, 53, 0
5, 63488, Note_on_c, 3, 48, 100
5, 64000, Note_off_c, 3, 48, 0
5, 64000, Note_on_c, 3, 50, 100
5, 64512, Note_off_c, 3, 50, 0
5, 64512, Note_on_c, 3, 52, 100
5, 65024, Note_off_c, 3, 52, 0
5, 65024, Note_on_c, 3, 48, 100
5, 65536, Note_off_c, 3, 48, 0
5, 65536, Note_on_c, 3, 53, 100
5, 66048, Note_off_c, 3, 53, 0
5, 66048, Note_on_c, 3, 55, 100
5, 66560, Note_off_c, 3, 55, 0
5, 66560, Note_on_c, 3, 57, 100
5, 67072, Note_off_c, 3, 57, 0
5, 67072, Note_on_c, 3, 53, 100
5, 67584, Note_off_c, 3, 53, 0
5, 67584, Note_on_c, 3, 60, 100
5, 68608, Note_off_c, 3, 60, 0
5, 68608, Note_on_c, 3, 58, 100
5, 69120, Note_off_c, 3, 58, 0
5, 69120, Note_on_c, 3, 57, 100
5, 69632, Note_off_c, 3, 57, 0
5, 69632, Note_on_c, 3, 55, 100
5, 70656, Note_off_c, 3, 55, 0
5, 70656, Note_on_c, 3, 62, 100
5, 71168, Note_off_c, 3, 62, 0
5, 71168, Note_on_c, 3, 60, 100
5, 71680, Note_off_c, 3, 60, 0
5, 71680, Note_on_c, 3, 58, 100
5, 72704, Note_off_c, 3, 58, 0
5, 72704, Note_on_c, 3, 60, 100
5, 73728, Note_off_c, 3, 60, 0
5, 73728, Note_on_c, 3, 53, 100
5, 75776, Note_off_c, 3, 53, 0
5, 75776, Note_on_c, 3, 50, 100
5, 76288, Note_off_c, 3, 50, 0
5, 76288, Note_on_c, 3, 53, 100
5, 76800, Note_off_c, 3, 53, 0
5, 76800, Note_on_c, 3, 57, 100
5, 77824, Note_off_c, 3, 57, 0
5, 77824, Note_on_c, 3, 46, 100
5, 78336, Note_off_c, 3, 46, 0
5, 78336, Note_on_c, 3, 50, 100
5, 78848, Note_off_c, 3, 50, 0
5, 78848, Note_on_c, 3, 53, 100
5, 79872, Note_off_c, 3, 53, 0
5, 79872, Note_on_c, 3, 55, 100
5, 80896, Note_off_c, 3, 55, 0
5, 80896, Note_on_c, 3, 57, 100
5, 81408, Note_off_c, 3, 57, 0
5, 81408, Note_on_c, 3, 50, 100
5, 81920, Note_off_c, 3, 50, 0
5, 81920, Note_on_c, 3, 47, 100
5, 82944, Note_off_c, 3, 47, 0
5, 82944, Note_on_c, 3, 48, 100
5, 83968, Note_off_c, 3, 48, 0
5, 83968, Note_on_c, 3, 41, 100
5, 84992, Note_off_c, 3, 41, 0
5, 86016, End_track
6, 0, Start_track
6, 0, Unknown_meta_event, 9, 22, 83, 109, 97, 114, 116, 77, 117, 115, 105, 99, 32, 83, 111, 102, 116, 83, 121, 110, 116, 104, 32, 49
6, 0, Title_t, "Instrument 5"
6, 0, Control_c, 4, 7, 101
6, 0, Control_c, 4, 10, 64
6, 3072, Note_on_c, 4, 53, 100
6, 4096, Note_off_c, 4, 53, 0
6, 4096, Note_on_c, 4, 52, 100
6, 5120, Note_off_c, 4, 52, 0
6, 5120, Note_on_c, 4, 53, 100
6, 6144, Note_off_c, 4, 53, 0
6, 6144, Note_on_c, 4, 50, 100
6, 7168, Note_off_c, 4, 50, 0
6, 7168, Note_on_c, 4, 45, 100
6, 8192, Note_off_c, 4, 45, 0
6, 8192, Note_on_c, 4, 46, 100
6, 8704, Note_off_c, 4, 46, 0
6, 8704, Note_on_c, 4, 48, 100
6, 9216, Note_off_c, 4, 48, 0
6, 9216, Note_on_c, 4, 50, 100
6, 9728, Note_off_c, 4, 50, 0
6, 9728, Note_on_c, 4, 52, 100
6, 10240, Note_off_c, 4, 52, 0
6, 10240, Note_on_c, 4, 53, 100
6, 11264, Note_off_c, 4, 53, 0
6, 11264, Note_on_c, 4, 53, 100
6, 12288, Note_off_c, 4, 53, 0
6, 12288, Note_on_c, 4, 58, 100
6, 13312, Note_off_c, 4, 58, 0
6, 13312, Note_on_c, 4, 57, 100
6, 13824, Note_off_c, 4, 57, 0
6, 13824, Note_on_c, 4, 55, 100
6, 14336, Note_off_c, 4, 55, 0
6, 14336, Note_on_c, 4, 57, 100
6, 14848, Note_off_c, 4, 57, 0
6, 14848, Note_on_c, 4, 59, 100
6, 15360, Note_off_c, 4, 59, 0
6, 15360, Note_on_c, 4, 60, 100
6, 16384, Note_off_c, 4, 60, 0
6, 16384, Note_on_c, 4, 53, 100
6, 17408, Note_off_c, 4, 53, 0
6, 17408, Note_on_c, 4, 55, 100
6, 18432, Note_off_c, 4, 55, 0
6, 18432, Note_on_c, 4, 48, 100
6, 19456, Note_off_c, 4, 48, 0
6, 19456, Note_on_c, 4, 53, 100
6, 20480, Note_off_c, 4, 53, 0
6, 20480, Note_on_c, 4, 46, 100
6, 21504, Note_off_c, 4, 46, 0
6, 21504, Note_on_c, 4, 48, 100
6, 22528, Note_off_c, 4, 48, 0
6, 22528, Note_on_c, 4, 50, 100
6, 23040, Note_off_c, 4, 50, 0
6, 23040, Note_on_c, 4, 52, 100
6, 23552, Note_off_c, 4, 52, 0
6, 23552, Note_on_c, 4, 53, 100
6, 24576, Note_off_c, 4, 53, 0
6, 24576, Note_on_c, 4, 48, 100
6, 26624, Note_off_c, 4, 48, 0
6, 26624, Note_on_c, 4, 41, 100
6, 27648, Note_off_c, 4, 41, 0
6, 28672, Note_on_c, 4, 52, 100
6, 29696, Note_off_c, 4, 52, 0
6, 29696, Note_on_c, 4, 53, 100
6, 30720, Note_off_c, 4, 53, 0
6, 30720, Note_on_c, 4, 50, 100
6, 31744, Note_off_c, 4, 50, 0
6, 31744, Note_on_c, 4, 45, 100
6, 32768, Note_off_c, 4, 45, 0
6, 32768, Note_on_c, 4, 46, 100
6, 33280, Note_off_c, 4, 46, 0
6, 33280, Note_on_c, 4, 48, 100
6, 33792, Note_off_c, 4, 48, 0
6, 33792, Note_on_c, 4, 50, 100
6, 34304, Note_off_c, 4, 50, 0
6, 34304, Note_on_c, 4, 52, 100
6, 34816, Note_off_c, 4, 52, 0
6, 34816, Note_on_c, 4, 53, 100
6, 35840, Note_off_c, 4, 53, 0
6, 35840, Note_on_c, 4, 53, 100
6, 36864, Note_off_c, 4, 53, 0
6, 36864, Note_on_c, 4, 58, 100
6, 37888, Note_off_c, 4, 58, 0
6, 37888, Note_on_c, 4, 57, 100
6, 38400, Note_off_c, 4, 57, 0
6, 38400, Note_on_c, 4, 55, 100
6, 38912, Note_off_c, 4, 55, 0
6, 38912, Note_on_c, 4, 57, 100
6, 39424, Note_off_c, 4, 57, 0
6, 39424, Note_on_c, 4, 59, 100
6, 39936, Note_off_c, 4, 59, 0
6, 39936, Note_on_c, 4, 60, 100
6, 40960, Note_off_c, 4, 60, 0
6, 40960, Note_on_c, 4, 53, 100
6, 41984, Note_off_c, 4, 53, 0
6, 41984, Note_on_c, 4, 55, 100
6, 43008, Note_off_c, 4, 55, 0
6, 43008, Note_on_c, 4, 48, 100
6, 44032, Note_off_c, 4, 48, 0
6, 44032, Note_on_c, 4, 53, 100
6, 45056, Note_off_c, 4, 53, 0
6, 45056, Note_on_c, 4, 46, 100
6, 46080, Note_off_c, 4, 46, 0
6, 46080, Note_on_c, 4, 48, 100
6, 47104, Note_off_c, 4, 48, 0
6, 47104, Note_on_c, 4, 50, 100
6, 47616, Note_off_c, 4, 50, 0
6, 47616, Note_on_c, 4, 52, 100
6, 48128, Note_off_c, 4, 52, 0
6, 48128, Note_on_c, 4, 53, 100
6, 49152, Note_off_c, 4, 53, 0
6, 49152, Note_on_c, 4, 48, 100
6, 51200, Note_off_c, 4, 48, 0
6, 51200, Note_on_c, 4, 41, 100
6, 52224, Note_off_c, 4, 41, 0
6, 53248, Note_on_c, 4, 52, 100
6, 55296, Note_off_c, 4, 52, 0
6, 55296, Note_on_c, 4, 53, 100
6, 57344, Note_off_c, 4, 53, 0
6, 57344, Note_on_c, 4, 48, 100
6, 59392, Note_off_c, 4, 48, 0
6, 59392, Note_on_c, 4, 41, 100
6, 61440, Note_off_c, 4, 41, 0
6, 61440, Note_on_c, 4, 41, 100
6, 61952, Note_off_c, 4, 41, 0
6, 61952, Note_on_c, 4, 43, 100
6, 62464, Note_off_c, 4, 43, 0
6, 62464, Note_on_c, 4, 45, 100
6, 62976, Note_off_c, 4, 45, 0
6, 62976, Note_on_c, 4, 41, 100
6, 63488, Note_off_c, 4, 41, 0
6, 63488, Note_on_c, 4, 48, 100
6, 64000, Note_off_c, 4, 48, 0
6, 64000, Note_on_c, 4, 50, 100
6, 64512, Note_off_c, 4, 50, 0
6, 64512, Note_on_c, 4, 52, 100
6, 65024, Note_off_c, 4, 52, 0
6, 65024, Note_on_c, 4, 48, 100
6, 65536, Note_off_c, 4, 48, 0
6, 65536, Note_on_c, 4, 53, 100
6, 66048, Note_off_c, 4, 53, 0
6, 66048, Note_on_c, 4, 55, 100
6, 66560, Note_off_c, 4, 55, 0
6, 66560, Note_on_c, 4, 57, 100
6, 67072, Note_off_c, 4, 57, 0
6, 67072, Note_on_c, 4, 53, 100
6, 67584, Note_off_c, 4, 53, 0
6, 67584, Note_on_c, 4, 48, 100
6, 68096, Note_off_c, 4, 48, 0
6, 68096, Note_on_c, 4, 60, 100
6, 68608, Note_off_c, 4, 60, 0
6, 68608, Note_on_c, 4, 58, 100
6, 69120, Note_off_c, 4, 58, 0
6, 69120, Note_on_c, 4, 57, 100
6, 69632, Note_off_c, 4, 57, 0
6, 69632, Note_on_c, 4, 55, 100
6, 70656, Note_off_c, 4, 55, 0
6, 70656, Note_on_c, 4, 50, 100
6, 71168, Note_off_c, 4, 50, 0
6, 71168, Note_on_c, 4, 48, 100
6, 71680, Note_off_c, 4, 48, 0
6, 71680, Note_on_c, 4, 46, 100
6, 72704, Note_off_c, 4, 46, 0
6, 72704, Note_on_c, 4, 48, 100
6, 73728, Note_off_c, 4, 48, 0
6, 73728, Note_on_c, 4, 41, 100
6, 75776, Note_off_c, 4, 41, 0
6, 75776, Note_on_c, 4, 50, 100
6, 76288, Note_off_c, 4, 50, 0
6, 76288, Note_on_c, 4, 53, 100
6, 76800, Note_off_c, 4, 53, 0
6, 76800, Note_on_c, 4, 57, 100
6, 77312, Note_off_c, 4, 57, 0
6, 77312, Note_on_c, 4, 45, 100
6, 77824, Note_off_c, 4, 45, 0
6, 77824, Note_on_c, 4, 46, 100
6, 78336, Note_off_c, 4, 46, 0
6, 78336, Note_on_c, 4, 50, 100
6, 78848, Note_off_c, 4, 50, 0
6, 78848, Note_on_c, 4, 53, 100
6, 79360, Note_off_c, 4, 53, 0
6, 79360, Note_on_c, 4, 41, 100
6, 79872, Note_off_c, 4, 41, 0
6, 79872, Note_on_c, 4, 43, 100
6, 80896, Note_off_c, 4, 43, 0
6, 80896, Note_on_c, 4, 45, 100
6, 81408, Note_off_c, 4, 45, 0
6, 81408, Note_on_c, 4, 50, 100
6, 81920, Note_off_c, 4, 50, 0
6, 81920, Note_on_c, 4, 47, 100
6, 82944, Note_off_c, 4, 47, 0
6, 82944, Note_on_c, 4, 48, 100
6, 83968, Note_off_c, 4, 48, 0
6, 83968, Note_on_c, 4, 41, 100
6, 84992, Note_off_c, 4, 41, 0
6, 86016, End_track
7, 0, Start_track
7, 0, Unknown_meta_event, 9, 22, 83, 109, 97, 114, 116, 77, 117, 115, 105, 99, 32, 83, 111, 102, 116, 83, 121, 110, 116, 104, 32, 49
7, 0, Title_t, "Instrument 6"
7, 0, Control_c, 5, 7, 101
7, 0, Control_c, 5, 10, 64
7, 3072, Note_on_c, 5, 65, 100
7, 4096, Note_off_c, 5, 65, 0
7, 4096, Note_on_c, 5, 72, 100
7, 5120, Note_off_c, 5, 72, 0
7, 5120, Note_on_c, 5, 69, 100
7, 6144, Note_off_c, 5, 69, 0
7, 6144, Note_on_c, 5, 65, 100
7, 7168, Note_off_c, 5, 65, 0
7, 7168, Note_on_c, 5, 72, 100
7, 8192, Note_off_c, 5, 72, 0
7, 8192, Note_on_c, 5, 74, 100
7, 9216, Note_off_c, 5, 74, 0
7, 9216, Note_on_c, 5, 74, 100
7, 10240, Note_off_c, 5, 74, 0
7, 10240, Note_on_c, 5, 72, 100
7, 11264, Note_off_c, 5, 72, 0
7, 11264, Note_on_c, 5, 72, 100
7, 12288, Note_off_c, 5, 72, 0
7, 12288, Note_on_c, 5, 74, 100
7, 13312, Note_off_c, 5, 74, 0
7, 13312, Note_on_c, 5, 76, 100
7, 14336, Note_off_c, 5, 76, 0
7, 14336, Note_on_c, 5, 77, 100
7, 15360, Note_off_c, 5, 77, 0
7, 15360, Note_on_c, 5, 76, 100
7, 16384, Note_off_c, 5, 76, 0
7, 16384, Note_on_c, 5, 74, 100
7, 17408, Note_off_c, 5, 74, 0
7, 17408, Note_on_c, 5, 74, 100
7, 18432, Note_off_c, 5, 74, 0
7, 18432, Note_on_c, 5, 72, 100
7, 19456, Note_off_c, 5, 72, 0
7, 19456, Note_on_c, 5, 69, 100
7, 20480, Note_off_c, 5, 69, 0
7, 20480, Note_on_c, 5, 74, 100
7, 21504, Note_off_c, 5, 74, 0
7, 21504, Note_on_c, 5, 72, 100
7, 22528, Note_off_c, 5, 72, 0
7, 22528, Note_on_c, 5, 70, 100
7, 23552, Note_off_c, 5, 70, 0
7, 23552, Note_on_c, 5, 69, 100
7, 24576, Note_off_c, 5, 69, 0
7, 24576, Note_on_c, 5, 67, 100
7, 26624, Note_off_c, 5, 67, 0
7, 26624, Note_on_c, 5, 65, 100
7, 27648, Note_off_c, 5, 65, 0
7, 27648, Note_on_c, 5, 65, 100
7, 28672, Note_off_c, 5, 65, 0
7, 28672, Note_on_c, 5, 72, 100
7, 29696, Note_off_c, 5, 72, 0
7, 29696, Note_on_c, 5, 69, 100
7, 30720, Note_off_c, 5, 69, 0
7, 30720, Note_on_c, 5, 65, 100
7, 31744, Note_off_c, 5, 65, 0
7, 31744, Note_on_c, 5, 72, 100
7, 32768, Note_off_c, 5, 72, 0
7, 32768, Note_on_c, 5, 74, 100
7, 33792, Note_off_c, 5, 74, 0
7, 33792, Note_on_c, 5, 74, 100
7, 34816, Note_off_c, 5, 74, 0
7, 34816, Note_on_c, 5, 72, 100
7, 35840, Note_off_c, 5, 72, 0
7, 35840, Note_on_c, 5, 72, 100
7, 36864, Note_off_c, 5, 72, 0
7, 36864, Note_on_c, 5, 74, 100
7, 37888, Note_off_c, 5, 74, 0
7, 37888, Note_on_c, 5, 76, 100
7, 38912, Note_off_c, 5, 76, 0
7, 38912, Note_on_c, 5, 77, 100
7, 39936, Note_off_c, 5, 77, 0
7, 39936, Note_on_c, 5, 76, 100
7, 40960, Note_off_c, 5, 76, 0
7, 40960, Note_on_c, 5, 74, 100
7, 41984, Note_off_c, 5, 74, 0
7, 41984, Note_on_c, 5, 74, 100
7, 43008, Note_off_c, 5, 74, 0
7, 43008, Note_on_c, 5, 72, 100
7, 44032, Note_off_c, 5, 72, 0
7, 44032, Note_on_c, 5, 69, 100
7, 45056, Note_off_c, 5, 69, 0
7, 45056, Note_on_c, 5, 74, 100
7, 46080, Note_off_c, 5, 74, 0
7, 46080, Note_on_c, 5, 72, 100
7, 47104, Note_off_c, 5, 72, 0
7, 47104, Note_on_c, 5, 70, 100
7, 48128, Note_off_c, 5, 70, 0
7, 48128, Note_on_c, 5, 69, 100
7, 49152, Note_off_c, 5, 69, 0
7, 49152, Note_on_c, 5, 67, 100
7, 51200, Note_off_c, 5, 67, 0
7, 51200, Note_on_c, 5, 65, 100
7, 52224, Note_off_c, 5, 65, 0
7, 53248, Note_on_c, 5, 72, 100
7, 55296, Note_off_c, 5, 72, 0
7, 55296, Note_on_c, 5, 69, 100
7, 57344, Note_off_c, 5, 69, 0
7, 57344, Note_on_c, 5, 72, 100
7, 59392, Note_off_c, 5, 72, 0
7, 59392, Note_on_c, 5, 69, 100
7, 61440, Note_off_c, 5, 69, 0
7, 61440, Note_on_c, 5, 69, 100
7, 62464, Note_off_c, 5, 69, 0
7, 62464, Note_on_c, 5, 69, 100
7, 63488, Note_off_c, 5, 69, 0
7, 63488, Note_on_c, 5, 67, 100
7, 64512, Note_off_c, 5, 67, 0
7, 64512, Note_on_c, 5, 67, 100
7, 65536, Note_off_c, 5, 67, 0
7, 65536, Note_on_c, 5, 69, 100
7, 66560, Note_off_c, 5, 69, 0
7, 66560, Note_on_c, 5, 69, 100
7, 67584, Note_off_c, 5, 69, 0
7, 67584, Note_on_c, 5, 67, 100
7, 68608, Note_off_c, 5, 67, 0
7, 68608, Note_on_c, 5, 69, 100
7, 69632, Note_off_c, 5, 69, 0
7, 69632, Note_on_c, 5, 70, 100
7, 70656, Note_off_c, 5, 70, 0
7, 70656, Note_on_c, 5, 69, 100
7, 71680, Note_off_c, 5, 69, 0
7, 71680, Note_on_c, 5, 67, 100
7, 73728, Note_off_c, 5, 67, 0
7, 73728, Note_on_c, 5, 65, 100
7, 75776, Note_off_c, 5, 65, 0
7, 75776, Note_on_c, 5, 77, 100
7, 76800, Note_off_c, 5, 77, 0
7, 76800, Note_on_c, 5, 76, 100
7, 77824, Note_off_c, 5, 76, 0
7, 77824, Note_on_c, 5, 74, 100
7, 78848, Note_off_c, 5, 74, 0
7, 78848, Note_on_c, 5, 72, 100
7, 79872, Note_off_c, 5, 72, 0
7, 79872, Note_on_c, 5, 70, 100
7, 80896, Note_off_c, 5, 70, 0
7, 80896, Note_on_c, 5, 69, 100
7, 81920, Note_off_c, 5, 69, 0
7, 81920, Note_on_c, 5, 67, 100
7, 83968, Note_off_c, 5, 67, 0
7, 83968, Note_on_c, 5, 65, 100
7, 84992, Note_off_c, 5, 65, 0
7, 86016, End_track
8, 0, Start_track
8, 0, Unknown_meta_event, 9, 22, 83, 109, 97, 114, 116, 77, 117, 115, 105, 99, 32, 83, 111, 102, 116, 83, 121, 110, 116, 104, 32, 49
8, 0, Title_t, "Instrument 7"
8, 0, Control_c, 6, 7, 101
8, 0, Control_c, 6, 10, 64
8, 3072, Note_on_c, 6, 65, 100
8, 4096, Note_off_c, 6, 65, 0
8, 4096, Note_on_c, 6, 67, 100
8, 4608, Note_off_c, 6, 67, 0
8, 4608, Note_on_c, 6, 60, 100
8, 5120, Note_off_c, 6, 60, 0
8, 5120, Note_on_c, 6, 65, 100
8, 5632, Note_off_c, 6, 65, 0
8, 5632, Note_on_c, 6, 53, 100
8, 6144, Note_off_c, 6, 53, 0
8, 6144, Note_on_c, 6, 57, 100
8, 6656, Note_off_c, 6, 57, 0
8, 6656, Note_on_c, 6, 53, 100
8, 7168, Note_off_c, 6, 53, 0
8, 7168, Note_on_c, 6, 57, 100
8, 7680, Note_off_c, 6, 57, 0
8, 7680, Note_on_c, 6, 60, 100
8, 8192, Note_off_c, 6, 60, 0
8, 8192, Note_on_c, 6, 65, 100
8, 8448, Note_off_c, 6, 65, 0
8, 8448, Note_on_c, 6, 70, 100
8, 8704, Note_off_c, 6, 70, 0
8, 8704, Note_on_c, 6, 69, 100
8, 8960, Note_off_c, 6, 69, 0
8, 8960, Note_on_c, 6, 67, 100
8, 9216, Note_off_c, 6, 67, 0
8, 9216, Note_on_c, 6, 65, 100
8, 9728, Note_off_c, 6, 65, 0
8, 9728, Note_on_c, 6, 67, 100
8, 10240, Note_off_c, 6, 67, 0
8, 10240, Note_on_c, 6, 69, 100
8, 11264, Note_off_c, 6, 69, 0
8, 11264, Note_on_c, 6, 69, 100
8, 12288, Note_off_c, 6, 69, 0
8, 12288, Note_on_c, 6, 65, 100
8, 12800, Note_off_c, 6, 65, 0
8, 12800, Note_on_c, 6, 67, 100
8, 13056, Note_off_c, 6, 67, 0
8, 13056, Note_on_c, 6, 69, 100
8, 13312, Note_off_c, 6, 69, 0
8, 13312, Note_on_c, 6, 70, 100
8, 13824, Note_off_c, 6, 70, 0
8, 13824, Note_on_c, 6, 72, 100
8, 14080, Note_off_c, 6, 72, 0
8, 14080, Note_on_c, 6, 70, 100
8, 14336, Note_off_c, 6, 70, 0
8, 14336, Note_on_c, 6, 69, 100
8, 14848, Note_off_c, 6, 69, 0
8, 14848, Note_on_c, 6, 67, 100
8, 15360, Note_off_c, 6, 67, 0
8, 15360, Note_on_c, 6, 67, 100
8, 15872, Note_off_c, 6, 67, 0
8, 15872, Note_on_c, 6, 72, 100
8, 16384, Note_off_c, 6, 72, 0
8, 16384, Note_on_c, 6, 72, 100
8, 16896, Note_off_c, 6, 72, 0
8, 16896, Note_on_c, 6, 71, 100
8, 17152, Note_off_c, 6, 71, 0
8, 17152, Note_on_c, 6, 69, 100
8, 17408, Note_off_c, 6, 69, 0
8, 17408, Note_on_c, 6, 71, 100
8, 18432, Note_off_c, 6, 71, 0
8, 18432, Note_on_c, 6, 72, 100
8, 19456, Note_off_c, 6, 72, 0
8, 19456, Note_on_c, 6, 65, 100
8, 20992, Note_off_c, 6, 65, 0
8, 20992, Note_on_c, 6, 70, 100
8, 21504, Note_off_c, 6, 70, 0
8, 21504, Note_on_c, 6, 69, 100
8, 22016, Note_off_c, 6, 69, 0
8, 22016, Note_on_c, 6, 67, 100
8, 22528, Note_off_c, 6, 67, 0
8, 22528, Note_on_c, 6, 65, 100
8, 23040, Note_off_c, 6, 65, 0
8, 23040, Note_on_c, 6, 60, 100
8, 23552, Note_off_c, 6, 60, 0
8, 23552, Note_on_c, 6, 65, 100
8, 24064, Note_off_c, 6, 65, 0
8, 24064, Note_on_c, 6, 60, 100
8, 24576, Note_off_c, 6, 60, 0
8, 24576, Note_on_c, 6, 60, 100
8, 25088, Note_off_c, 6, 60, 0
8, 25088, Note_on_c, 6, 57, 100
8, 25344, Note_off_c, 6, 57, 0
8, 25344, Note_on_c, 6, 53, 100
8, 25600, Note_off_c, 6, 53, 0
8, 25600, Note_on_c, 6, 60, 100
8, 26112, Note_off_c, 6, 60, 0
8, 26112, Note_on_c, 6, 60, 100
8, 26368, Note_off_c, 6, 60, 0
8, 26368, Note_on_c, 6, 60, 100
8, 26624, Note_off_c, 6, 60, 0
8, 26624, Note_on_c, 6, 57, 100
8, 27648, Note_off_c, 6, 57, 0
8, 27648, Note_on_c, 6, 65, 100
8, 28672, Note_off_c, 6, 65, 0
8, 28672, Note_on_c, 6, 67, 100
8, 29184, Note_off_c, 6, 67, 0
8, 29184, Note_on_c, 6, 60, 100
8, 29696, Note_off_c, 6, 60, 0
8, 29696, Note_on_c, 6, 65, 100
8, 30208, Note_off_c, 6, 65, 0
8, 30208, Note_on_c, 6, 53, 100
8, 30720, Note_off_c, 6, 53, 0
8, 30720, Note_on_c, 6, 57, 100
8, 31232, Note_off_c, 6, 57, 0
8, 31232, Note_on_c, 6, 53, 100
8, 31744, Note_off_c, 6, 53, 0
8, 31744, Note_on_c, 6, 57, 100
8, 32256, Note_off_c, 6, 57, 0
8, 32256, Note_on_c, 6, 60, 100
8, 32768, Note_off_c, 6, 60, 0
8, 32768, Note_on_c, 6, 65, 100
8, 33024, Note_off_c, 6, 65, 0
8, 33024, Note_on_c, 6, 70, 100
8, 33280, Note_off_c, 6, 70, 0
8, 33280, Note_on_c, 6, 69, 100
8, 33536, Note_off_c, 6, 69, 0
8, 33536, Note_on_c, 6, 67, 100
8, 33792, Note_off_c, 6, 67, 0
8, 33792, Note_on_c, 6, 65, 100
8, 34304, Note_off_c, 6, 65, 0
8, 34304, Note_on_c, 6, 67, 100
8, 34816, Note_off_c, 6, 67, 0
8, 34816, Note_on_c, 6, 69, 100
8, 35840, Note_off_c, 6, 69, 0
8, 35840, Note_on_c, 6, 69, 100
8, 36864, Note_off_c, 6, 69, 0
8, 36864, Note_on_c, 6, 65, 100
8, 37376, Note_off_c, 6, 65, 0
8, 37376, Note_on_c, 6, 67, 100
8, 37632, Note_off_c, 6, 67, 0
8, 37632, Note_on_c, 6, 69, 100
8, 37888, Note_off_c, 6, 69, 0
8, 37888, Note_on_c, 6, 70, 100
8, 38400, Note_off_c, 6, 70, 0
8, 38400, Note_on_c, 6, 72, 100
8, 38656, Note_off_c, 6, 72, 0
8, 38656, Note_on_c, 6, 70, 100
8, 38912, Note_off_c, 6, 70, 0
8, 38912, Note_on_c, 6, 69, 100
8, 39424, Note_off_c, 6, 69, 0
8, 39424, Note_on_c, 6, 67, 100
8, 39936, Note_off_c, 6, 67, 0
8, 39936, Note_on_c, 6, 67, 100
8, 40448, Note_off_c, 6, 67, 0
8, 40448, Note_on_c, 6, 72, 100
8, 40960, Note_off_c, 6, 72, 0
8, 40960, Note_on_c, 6, 72, 100
8, 41472, Note_off_c, 6, 72, 0
8, 41472, Note_on_c, 6, 71, 100
8, 41728, Note_off_c, 6, 71, 0
8, 41728, Note_on_c, 6, 69, 100
8, 41984, Note_off_c, 6, 69, 0
8, 41984, Note_on_c, 6, 71, 100
8, 43008, Note_off_c, 6, 71, 0
8, 43008, Note_on_c, 6, 72, 100
8, 44032, Note_off_c, 6, 72, 0
8, 44032, Note_on_c, 6, 65, 100
8, 45568, Note_off_c, 6, 65, 0
8, 45568, Note_on_c, 6, 70, 100
8, 46080, Note_off_c, 6, 70, 0
8, 46080, Note_on_c, 6, 69, 100
8, 46592, Note_off_c, 6, 69, 0
8, 46592, Note_on_c, 6, 67, 100
8, 47104, Note_off_c, 6, 67, 0
8, 47104, Note_on_c, 6, 65, 100
8, 47616, Note_off_c, 6, 65, 0
8, 47616, Note_on_c, 6, 60, 100
8, 48128, Note_off_c, 6, 60, 0
8, 48128, Note_on_c, 6, 65, 100
8, 48640, Note_off_c, 6, 65, 0
8, 48640, Note_on_c, 6, 60, 100
8, 49152, Note_off_c, 6, 60, 0
8, 49152, Note_on_c, 6, 60, 100
8, 49664, Note_off_c, 6, 60, 0
8, 49664, Note_on_c, 6, 57, 100
8, 49920, Note_off_c, 6, 57, 0
8, 49920, Note_on_c, 6, 53, 100
8, 50176, Note_off_c, 6, 53, 0
8, 50176, Note_on_c, 6, 60, 100
8, 50688, Note_off_c, 6, 60, 0
8, 50688, Note_on_c, 6, 60, 100
8, 50944, Note_off_c, 6, 60, 0
8, 50944, Note_on_c, 6, 60, 100
8, 51200, Note_off_c, 6, 60, 0
8, 51200, Note_on_c, 6, 57, 100
8, 52224, Note_off_c, 6, 57, 0
8, 53248, Note_on_c, 6, 67, 100
8, 53760, Note_off_c, 6, 67, 0
8, 53760, Note_on_c, 6, 60, 100
8, 54016, Note_off_c, 6, 60, 0
8, 54016, Note_on_c, 6, 60, 100
8, 54272, Note_off_c, 6, 60, 0
8, 54272, Note_on_c, 6, 60, 100
8, 54528, Note_off_c, 6, 60, 0
8, 54528, Note_on_c, 6, 60, 100
8, 54784, Note_off_c, 6, 60, 0
8, 54784, Note_on_c, 6, 60, 100
8, 55040, Note_off_c, 6, 60, 0
8, 55040, Note_on_c, 6, 60, 100
8, 55296, Note_off_c, 6, 60, 0
8, 55296, Note_on_c, 6, 65, 100
8, 57344, Note_off_c, 6, 65, 0
8, 57344, Note_on_c, 6, 67, 100
8, 57600, Note_off_c, 6, 67, 0
8, 57600, Note_on_c, 6, 65, 100
8, 57856, Note_off_c, 6, 65, 0
8, 57856, Note_on_c, 6, 67, 100
8, 58112, Note_off_c, 6, 67, 0
8, 58112, Note_on_c, 6, 69, 100
8, 58368, Note_off_c, 6, 69, 0
8, 58368, Note_on_c, 6, 67, 100
8, 59392, Note_off_c, 6, 67, 0
8, 59392, Note_on_c, 6, 65, 100
8, 61440, Note_off_c, 6, 65, 0
8, 61440, Note_on_c, 6, 65, 100
8, 61952, Note_off_c, 6, 65, 0
8, 61952, Note_on_c, 6, 60, 100
8, 62464, Note_off_c, 6, 60, 0
8, 62464, Note_on_c, 6, 65, 100
8, 62976, Note_off_c, 6, 65, 0
8, 62976, Note_on_c, 6, 60, 100
8, 63488, Note_off_c, 6, 60, 0
8, 63488, Note_on_c, 6, 72, 100
8, 64000, Note_off_c, 6, 72, 0
8, 64000, Note_on_c, 6, 70, 100
8, 64256, Note_off_c, 6, 70, 0
8, 64256, Note_on_c, 6, 69, 100
8, 64512, Note_off_c, 6, 69, 0
8, 64512, Note_on_c, 6, 70, 100
8, 65024, Note_off_c, 6, 70, 0
8, 65024, Note_on_c, 6, 72, 100
8, 65280, Note_off_c, 6, 72, 0
8, 65280, Note_on_c, 6, 70, 100
8, 65536, Note_off_c, 6, 70, 0
8, 65536, Note_on_c, 6, 69, 100
8, 66048, Note_off_c, 6, 69, 0
8, 66048, Note_on_c, 6, 67, 100
8, 66560, Note_off_c, 6, 67, 0
8, 66560, Note_on_c, 6, 65, 100
8, 67072, Note_off_c, 6, 65, 0
8, 67072, Note_on_c, 6, 60, 100
8, 67584, Note_off_c, 6, 60, 0
8, 67584, Note_on_c, 6, 72, 100
8, 69120, Note_off_c, 6, 72, 0
8, 69120, Note_on_c, 6, 60, 100
8, 69632, Note_off_c, 6, 60, 0
8, 69632, Note_on_c, 6, 67, 100
8, 70144, Note_off_c, 6, 67, 0
8, 70144, Note_on_c, 6, 65, 100
8, 70400, Note_off_c, 6, 65, 0
8, 70400, Note_on_c, 6, 64, 100
8, 70656, Note_off_c, 6, 64, 0
8, 70656, Note_on_c, 6, 65, 100
8, 72192, Note_off_c, 6, 65, 0
8, 72192, Note_on_c, 6, 53, 100
8, 72704, Note_off_c, 6, 53, 0
8, 72704, Note_on_c, 6, 60, 100
8, 73216, Note_off_c, 6, 60, 0
8, 73216, Note_on_c, 6, 60, 100
8, 73472, Note_off_c, 6, 60, 0
8, 73472, Note_on_c, 6, 60, 100
8, 73728, Note_off_c, 6, 60, 0
8, 73728, Note_on_c, 6, 57, 100
8, 75776, Note_off_c, 6, 57, 0
8, 75776, Note_on_c, 6, 69, 100
8, 76032, Note_off_c, 6, 69, 0
8, 76032, Note_on_c, 6, 67, 100
8, 76288, Note_off_c, 6, 67, 0
8, 76288, Note_on_c, 6, 69, 100
8, 76544, Note_off_c, 6, 69, 0
8, 76544, Note_on_c, 6, 70, 100
8, 76800, Note_off_c, 6, 70, 0
8, 76800, Note_on_c, 6, 72, 100
8, 78336, Note_off_c, 6, 72, 0
8, 78336, Note_on_c, 6, 70, 100
8, 79360, Note_off_c, 6, 70, 0
8, 79360, Note_on_c, 6, 69, 100
8, 80384, Note_off_c, 6, 69, 0
8, 80384, Note_on_c, 6, 67, 100
8, 81408, Note_off_c, 6, 67, 0
8, 81408, Note_on_c, 6, 65, 100
8, 82432, Note_off_c, 6, 65, 0
8, 82432, Note_on_c, 6, 53, 100
8, 82944, Note_off_c, 6, 53, 0
8, 82944, Note_on_c, 6, 60, 100
8, 83456, Note_off_c, 6, 60, 0
8, 83456, Note_on_c, 6, 60, 100
8, 83712, Note_off_c, 6, 60, 0
8, 83712, Note_on_c, 6, 60, 100
8, 83968, Note_off_c, 6, 60, 0
8, 83968, Note_on_c, 6, 57, 100
8, 84992, Note_off_c, 6, 57, 0
8, 86016, End_track
0, 0, End_of_file
